<svg width="20" height="20" viewBox="0 0 20 20" fill="none" xmlns="http://www.w3.org/2000/svg">
<path fill-rule="evenodd" clip-rule="evenodd" d="M-0.00390625 1C-0.00390625 1.55 0.446094 2 0.996094 2H1.99609L5.59609 9.59L4.24609 12.03C3.51609 13.37 4.47609 15 5.99609 15H16.9961C17.5461 15 17.9961 14.55 17.9961 14C17.9961 13.45 17.5461 13 16.9961 13H5.99609L7.09609 11H14.5461C15.2961 11 15.9561 10.59 16.2961 9.97L19.8761 3.48C20.2461 2.82 19.7661 2 19.0061 2H4.20609L3.53609 0.57C3.37609 0.22 3.01609 0 2.63609 0H0.996094C0.446094 0 -0.00390625 0.45 -0.00390625 1ZM5.99609 16C4.89609 16 4.00609 16.9 4.00609 18C4.00609 19.1 4.89609 20 5.99609 20C7.09609 20 7.99609 19.1 7.99609 18C7.99609 16.9 7.09609 16 5.99609 16ZM14.0061 18C14.0061 16.9 14.8961 16 15.9961 16C17.0961 16 17.9961 16.9 17.9961 18C17.9961 19.1 17.0961 20 15.9961 20C14.8961 20 14.0061 19.1 14.0061 18Z" fill="#1B1B1B"/>
</svg>
